<?xml version="1.0" encoding="UTF-8"?>
<svg version="1.1" viewBox="0 0 1600 1600" width="1280" height="1280" xmlns="http://www.w3.org/2000/svg">
<path transform="translate(958,547)" d="m0 0h91l10 2 13 2 6 4 3 4 1 11 2 8 1 27 2 11 1 20 8 5 7 6 10 8 18 18 7 8 9 11 9 9 7 8 8 10 11 13 7 8 8 10 9 11 7 9 11 13 15 20 7 8 7 9 10 13 48 64 10 14 13 18 7 10 20 28 17 25 28 42 10 17 9 14 14 25 10 21 4 12v12l-2 2h-8l-12-8-28-28-7-9-11-12-10-13-9-10-8-10-10-12-7-8-10-13-8-8-8-11-7-7-8-10-7-8-8-8-7-8-24-24-7-8-13-12-31-31-8-7-27-27-8-7-13-12-11-11-2-1v-2l-4-2-11-11-7-8-13-13-7-9h-1v59l-1 49-2 23-1 27-2 18-2 26-3 28-3 24-4 25-5 30-9 43-10 37-8 26-7 20-13 31-10 21-10 17-9 14-14 18-11 11-5 6-8 7-9 8-14 9-16 9-15 6-12 4-10 2-10 1h-26l-2-1-24-3-24-6-15-5-18-8-21-11-14-9-15-11-10-8-8-7-7-7-10-8-9-10-7-8-9-9-9-12-7-8-6-8-10-14-19-29-9-15-11-19-12-22-11-23-11-22-15-35-13-32-10-26-12-36-6-17-3-3-1 8-10 34-9 29-8 26-6 22-3 12-2 13-3 13-10 45-4 14-5 22-4 15-7 27-9 30-14 42-11 26-10 19-7 10-8 11-6 5-6 3h-18l-12-6-10-9-9-14-8-16-4-11-6-23-3-17-3-30v-69l2-13 1-23 2-11 2-24 2-14 7-44 7-38 6-28 12-47 13-41 9-24 12-29 8-16 10-18 8-13 16-22 28-28 14-9 2-1v-8l-5-23-9-51-4-24v-8l3-5 6-5 19-3 22-2 49-5 15-2 23-2 19-2 30-3 16-2 25-2 20-2 32-3 76-7 61-6 43-4 17-2 22-2 27-2z" fill="#BDC6CB"/>
<path transform="translate(742,16)" d="m0 0 8 2 25 1 24 4 18 4 25 8 16 6 16 7 10 6 17 9 15 10 11 8 12 9 16 14 12 11 12 12 18 22 7 9 11 16 10 16 9 15 9 19 12 31 7 25 3 14 3 19 1 23v50l-1 16-6 25-7 17-9 15-5 6-8 10-7 7-8 6-8 7-11 8-11 7-21 12-17 8-23 8-27 8-33 7-27 4-24 2-24 1h-39l-28-1-26-3-36-7-24-6-29-9-22-8-20-8-25-12-28-14-17-11-9-6-16-11-13-11-10-8-19-19-7-9-8-10-10-21-3-11-1-11-1-3v-22l1-3 2-21 6-28 7-27 9-27 9-21 8-16 6-10 9-14 15-22 6-7 7-9 38-38 20-15 14-10 15-9 23-12 19-9 15-6 13-4 17-4 16-4 29-4 36-2z" fill="#BDC6CB"/>
<path transform="translate(1035,585)" d="m0 0 9 1 9 5 4 9 5 5 5 3 4 9 1 6-3 13-4 5-2 2 3 2-2 2 9-3 1-2-1 7h-2l-2 5-5 6-4 5-2 16-2 3-2 13 1 28 1 34 2 2 1-5v-9l-2-16 1-5-2-1-1-9v-19l3-7h2l1-8 3-5 3-4 1 11-2 9-2 4v7l1 1v18l1 16-2 8v14l3 7 4 10v-8l2 4 2-1 1 19 1-15 2 1 1 58-2 34-2-1 1-15-3 1v10 2l1 4-2 3 1 4 1 3-2 2-1-1v11l-1 26-1 4-2 29-5 42-1 18-2 15-2 1 1-24 1-11 1-20 3-20-1-15 1-27-2-9v-12l-2-7 1 13-2 6v2h2l1 4v23l-1 4v19l-2 6-1 19v10l-1 3-2 54-1 16-4 24-3 20v3l-1 9h-2l-1 7-3 15-1 1-2 12-4 13-2 8-3 9-4 10-1 7h-2l-1 8h-2l-4 14-2 1-1 4-1 3-2 1 1 2-4 5-2 6-1 4h-2l-2 5-8 14-3 1v3l-2 2-2 1v2l-3 3-5 6-1 3-5 5-4 5h-2l-2 4-13 13h-3l-2 4-6 4-2-1-1 3-14 8-12 5-14 5-3 1h-8l-3-1 1-5 6-5 11-6 6-4-5 2-4 2-3-1 14-9 8-5-3 1-6 4-2-1 1-1-2-1-1 3-9 2-9 3-7 3h-6l-2-1v-9l2-21-1-9h-2l-1-2-3 1-6-7-16-12-9-7-4-2h-12l-2-5-5 1-4-5-2 2-7-8-4-3-1 2-2-2 2 4 5 1 2 3-1 5-5-2-4-5-5-5-7-11-4-14-2-3-1-8-3-2-3-8v-8l-2-5-1-11 1-5-3-3 2-10 1-2-1-9-1-1v-9l3-8 1-7 1-19-1-13 3-8v-15l3-13-2-7 3-15-3-9 3-9-1-7v-8l4-5v-7l2-12h-2l-3 16-1 7-2 9-1 19-1 3v10l-3 31-2 7v11l-5 17v9l-3-3-2 3-3-4v-5l3-5 1-9-2-3 1-5 4-8 1-7-2-2 1-6 1-2 1-15-1-1v-9l2-3v-18l2-17 3-9 3-20 2-3 1-11 2-17v-14l2-4v-5l-2-3v-11l1-1-1-13-2-11-1-14 1-9-1-2v-19l1-7-1-2v-20l-2-7v-16l-1-17-1-26 2-20-2-4 1-7 2-12 1-18 2-4 2 6h1v15l1 20 1 58v11l1 5 2-2v-10l-2-4 1-7 1-1v-8l-2-6 3-12 1-48 5-30 6-7 5-5 13-5 10-5 4 1-16 8-8 5-6 8-1 10 1 2 2-10h1l1 7 3-9 3-3-2 8 1 8 1 2 2-9 3-8 7-6 10-6 20-8 12-4 14-5 16-5 47-7 25-4 10-2v2l10-3 2-1 5-1 14-4 6-1 4 1 14-5z" fill="#FCFCFC"/>
<path transform="translate(734,146)" d="m0 0h17l25 2 24 4 20 5 24 8 21 9 21 11 19 12 16 12 12 10 21 21 8 9 12 17 10 17 5 11 6 17 4 17 2 20v25l-2 16-5 18-9 17-8 11h-2v2h-2l-2 4-17 12-15 8-15 6-22 6-27 5-29 3-16 1h-54l-28-2-32-3-39-6-28-6-29-8-28-10-25-11-23-13-19-13-17-17-8-11-8-15-4-14-1-6v-17l3-22 6-21 8-19 9-17 10-14 9-11 7-8h2l2-4 13-11h2l1-3 5-4 7-4 8-6 32-16 20-8 32-8 23-4 27-3z" fill="#0D111C"/>
<path transform="translate(467,713)" d="m0 0h22l10 1v1h-17l-10 1v2l-14 8-10 3-1 1 8-1h12l6 3 1 7 3 5v24l1 4h2l-1-4 1-2 2-18h1l1 5 3-11-2-11-5-5-6-4v-3l5-1h8l9 2v2l5 1 4 2-5-4 1-4 3-1 9 6 6 8 3 8 1 22-1 16-4 26-3 16-5 22-4 17-6 21-7 27-6 21-3 18-10 34-9 29-8 26-6 22-3 12-2 13-3 13-10 45-4 14-5 22-4 15-7 27-9 30-14 42-11 26-10 19-7 10-8 11-6 5-6 3h-18l-12-6-10-9-9-14-8-16-4-11-6-23-3-17-3-30v-69l2-13 1-23 2-11 2-24 2-14 7-44 7-38 6-28 12-47 13-41 9-24 12-29 8-16 10-18 8-13 16-22 28-28 14-9 10-3 3-2 11-4z" fill="#BDC6CB"/>
<path transform="translate(746,20)" d="m0 0h19l9 1 6-1 19 3 18 4 25 8 16 6 16 7 10 6 17 9 15 10 11 8 12 9 16 14 12 11 12 12 18 22 7 9 11 16 10 16 9 15 9 19 12 31 7 25 3 14 1 9-1 7-1 1v19l1 8h2v57l-1 4h-2v7 4l-3 3-1 2h-2l1 3-5 10-8 13-7 10-2 3h-2l-2 4-2 3h-2l-2 4h-2v2l-8 7-4 2v2l-7 5h-2v2h-3v2l-7 5-11 7-6 2-2 2-2-1-1 3-3 1-2-1v2l-7 1-1 3-6 2-2-1-1 3-5 1-2-1-1 3-4 1-9 3-10 3v1l-7 2h-5l-6 2h-5v1l-19 3-31 3-24 1-21-1-20-3-10-4-6-7-2-5 1-4 3 6 5 5 8 5 13 3-4-2-8-5-4-5-3-13-1-8-5-6-8-4-10-2-4 1-4-2-18-2-26-4-30-6-18-5-16-4-31-10-13-6-15-7-1-2 5 1 15 6 12 3 21 7 22 6 33 7 41 6 35 3 18 1h54l36-3 27-4 24-6 17-6 17-8 13-9 8-6 1-2h2v-2h2l2-4 9-14 6-13 5-20 1-11v-25l-2-20-4-17-6-17-8-16-9-15-14-19-6-7-8-7-12-12-11-9-15-11-21-13-23-12-28-11-16-5v-2l-12-2-20-4-27-3h-34l-19 1-23 3v-3l12-3 10-1 2-1 12 1v-2h5l3-1 6-1 1 1 18-1 16-1 6-2-3-9-6-3v-9l7 6 10 11 1-3 1 1 2-3v2l3 1 3 3-5-13-8-11-1-6 2-3-3 1-3 4 1-5-4 3-5-2v-2h-2v6l-3-3 1-5h-2l-2 4 4 10-1 2-5-4v-2h-2l-2-3v-3l-5-2-3-5 1-3 10-3 11-2 3-3-1-5-5-4-3-7-11-6-10-6-10-11-2-9v-2l-5-1-8-3-15-1v-1h21l12 5h3l6-2 2 1-5-5v-4h3v2l4-1v-2z" fill="#FBFBFB"/>
<path transform="translate(467,713)" d="m0 0h22l10 1v1h-17l-10 1v2l-14 8-10 3-1 1 8-1h12l6 3 1 7 3 5v24l1 4h2l-1-4 1-2 2-18h1l1 5 3-11-2-11-5-5-6-4v-3l5-1h8l9 2v2l5 1 4 2-5-4 1-4 3-1 9 6 6 8 3 8 1 22-1 16-4 26-3 16-5 22-4 17-6 21-7 27-6 21-3 18-10 34-9 29-8 26-6 22-3 12-2 13-3 13-10 45-4 14-5 22-4 15-7 27-9 30-5 15-3-1 1-11 2-3v-7l1-1 5-28 5-24 2-11 1-12h-2l-1 7-11 32-2 4h-2l1-13 2-12 1-21v-18l-1-7-2-3-1-11-3-6v-8l-3-15v-15l-3-39-1-15-2-6-1-5-2-2v-4h-2l-4-16h-2l-1 2h-2v3h-2l-1 6-8 16h-3l-1-4 1-14 6-31 7-33 3-12 3-13 2-10 2-26v-13l-3-12-4-2-9 5-7 12-5 9-6 10h-4l1-11 2-2 1 3h2l2-4 5-8h2l1-5-4 2-1-1v-8l6-20 2-2v3l3-1-2-2 4-1v-7l4-10 3 1 1-6 5-13 6-9 3-6 4-5 4-2 3-5 10-13 7-6h2l1-3 6-4 1-3-7 1-6 5-5 5h-2l2-4 8-8 14-9 10-3 3-2 11-4z" fill="#FCFCFC"/>
<path transform="translate(873,270)" d="m0 0h18l13 3 9 6 9 4 2 1 3 8 5 5-1 7h2v3h2l-1 12-1 6-2 3v7l-6 7-1 3h2l-2 5-9 3v6l-6 4-13 2v2h-2l3 3v2l-5 3-14 2-4 1-2 5-3 3-8 2h-44l-4-2-3-6-6-2-10-2-3-5v-4l-9-4-1-5 2-2-4-4-3-2 1-5 1-2-3-5 1-5 5-3-1-3-2-1 2-5 9-4-4-3 1-3 6-4 8-2v-2l-3-2v-2l13-5 9-2v-2l-5-1 3-3 16-4 18-4v-2l-2-1 4-2z" fill="#244BD4"/>
<path transform="translate(595,258)" d="m0 0 24 1 27 4 16 4 9 6v1h-9l-6-1v2l19 4 14 3 3 3 2 4-3 3 12 4 2 5 2 2-7 1 3 3 9 4v5l-6 1v3l7 2 1 4-2 3h-3l1 6 1 3-1 3-7 1 2 5 2 1v2l-3 3h-18l-11-2v2h7l1 3 6 2v3l-5 2h-20l-13-2h-15l-12-3-13-2-10-3-6-4v-2l9-1-1-2-5-2-15-3-7-4 1-3 6-1-18-8-1-4 5-3-9-9 1-3 3-3h-2l-2-4v-5l3-3-1-4 1-4 4-3 1-8 9-3 5-3-2-2 2-2z" fill="#254FD2"/>
<path transform="translate(640,192)" d="m0 0 13 2 14 5 5 4v2h2l2 3v11l-7 9-7 5-17 5 5 6 1 5 7 3 15 4 6 3 2 7 12 5 5 5-1 5 14 4 2 3v3l-4 4 12 4v5l-3 3v2l6 3 1 5-5 5 7 2-2 6-4 2v4l4 2-1 4-5 3h-2l4 7-2 2-7 1v7l-4 4-12 1v7l-2 2-15 2-8 4-10 2-20-1-15-3-7-3-2-4h-2v-2l-7-1-18-6-2-2-1-7-6-1-10-5-2-2 1-5-5-3-8-4-1-4 1-4-8-6v-4l3-2v-3l-7-5 2-4 3-1-2-4-2-2 1-5 3-2-1-8 1-3 5-1-1-5 3-6 5-4 5-7 6-3h2l2-5 7-2 17-3 24-5 4-1-8-5-9-4-2-7v-7l1-3h2l2-5 4-3h2v-2l11-7zm-45 66-13 2-2 3 2 1-5 3-9 3-1 8-5 4v6l1 2-3 2 1 7 1 2h2l-4 5 3 5 4 2 2 3-5 3 1 4 12 5 6 3-7 2 1 3 9 4 12 2 5 2 1 2-9 1 2 4 9 4 8 2 14 2 8 2h15l13 2h22l3-2v-3l-7-3v-2h-7v-2l11 2h18l3-3v-2l-3-3-1-3 7-1 1-5-2-5v-2l4-1 1-5-6-3h-2v-3l6-1v-5l-9-4-3-3 7-1-2-2-2-5-12-4 3-3v-2l-5-5-18-4-12-2-3-1v-2l6 1h9l-4-4-8-4-19-4-21-3z" fill="#101E3D"/>
<path transform="translate(1095,731)" d="m0 0 12 4 8 5 3 4v2l3 1 4 6 3 4v2l4 2 9 11 2 4h2l8 10 3 3v2h2l5 7 2 1v2l4 2v2h2l6 8v2h2l11 14 8 9v2h2l4 6 5 5 9 10 9 12 8 9 8 11 9 12 5 4 4 5v2l4 2 10 13 3 4v2l3 1 4 6v2h2l3 4v2h2l7 10 5 7 3 4v2l4 2 4 5 4 8 5 5v2h2l3 6v3l4 2 2 2 2 5 3 1 3 9h2l3 6h-3l-9-10-6-8-7-7-8-11-7-7-8-10-7-8-8-8-7-8-24-24-7-8-13-12-31-31-8-7-27-27-8-7-13-12-11-11-2-1v-2l-4-2-11-11-7-8-13-13-7-9v-34l1-2h2z" fill="#797E81"/>
<path transform="translate(870,260)" d="m0 0h17l16 4 15 5 8 7v2h2v2l5 2 3 4 2 7 3 4-1 7 5 3-1 6h-2v5l2 1v5l-3 3v3l3 2-2 5-6 3h-2v3l2 1-1 6-4 2h-4v2h-2v2l3 1-1 5-9 3-4 2-1 7-16 4-2 3-1 4-5 3-16 3-5 3h-2v2l-5 3-7 1h-31l-10-4-1-3-19-4-4-1-1-4 1-4-14-5 1-8-9-4 1-5 2-4-5-2-2-2 1-4 2-2-1-5-2-1 1-5 3-3-2-4 1-5 6-3 2-3-4-2 2-4 9-4h2v-2h-2l-1-4 6-4 12-2-2-6 3-3 17-4 2-6 7-3 25-5 9-3zm3 10-20 3-4 3h2v2l-18 4-16 4-3 3 6 2-3 2-11 2-9 4 1 3 2 1v2l-10 3-5 4v2l4 3-9 4-2 5 3 2-1 3-4 2-1 5 3 5-2 3 1 5 5 3 1 3-2 1 1 5 10 5-1 4 3 4 16 4 4 7 3 1h44l9-3 4-5v-2l18-3 5-3v-2l-3-3h2v-2l13-2 6-4v-6l10-4 1-4h-2l3-6 4-4v-7l3-6v-8l1-7h-2v-3h-2l1-7-6-7-2-6-16-8-6-4-11-2z" fill="#101E3D"/>
<path transform="translate(873,270)" d="m0 0h18l13 3 9 6 9 4 2 1 3 8 5 5-1 7h2v3h2l-1 12-1 6-2 3v7l-6 7-1 3h2l-2 5-9 3v6l-6 4-13 2v2h-2l3 3v2l-5 3-14 2-4 1-2 5-3 3-8 2h-44l-4-2-3-6-6-2-10-2-3-5v-4l-5-2-2-4 4-4h2l-4-4v-2h42l1-1h78l5 1 10-2 1-4-5-1-2-4 2-2 10-1v-5l-3-1 1-5 4-2v-5h-2l-1-5 3-4-1-3-5-5 1-2h2l-2-6-4-1-4-4-1-4-13-4-11-1h-26l-13 2-19 2-11 3h-2v2h12v2l-15 4-9 2-7 3 1 1 8 1v2l-8 3h-6l3-2v-2l-3-2v-2l13-5 9-2v-2l-5-1 3-3 16-4 18-4v-2l-2-1 4-2z" fill="#244BD3"/>
<path transform="translate(1021,1148)" d="m0 0 2 1v10l-3 16-3 14-5 16-6 15-14 29-5 10-3 5-3 6h-2l-2 4-7 11-5 7h-2l-2 5-20 20-14 10-16 8-8 3-12 1 1-4 10-6 10-8 11-8 7-6 5-5 9-10 11-13 12-17 8-14 5-8 9-19 5-11 11-30 2-9 8-16 3-5h3z" fill="#BDC6CB"/>
<path transform="translate(878,331)" d="m0 0h42l4 1v3l-6 2-1 5 6 3-1 4-10 3-7-1h-76l-1 1h-38l-4-1v2l4 2v2l-4 2-1 3 1 2-4-1-1-5 2-2-5-6 1-4 6-1 1-6-4-1 2-5 11-1z" fill="#244BD3"/>
<path transform="translate(640,192)" d="m0 0 13 2 14 5 5 4v2h2l2 3v11l-7 9-7 5-17 5 4 5v2l-7 1-16-1-4-6 3-2 4-1-8-5-9-4-2-7v-7l1-3h2l2-5 4-3h2v-2l11-7z" fill="#1F2C44"/>
<path transform="translate(870,267)" d="m0 0h19l13 2 8 3 8 7 8 5 6 10 3 4v7l3 3-1 8 1 8-4 3 1 4v3l-2 4-4 1v5l1 5-7 3h-3l-1 4 3 1-2 5-10 3h-5v4l-1 4-3 2-16 3-4 8-16 3-13 1h-32l-19-2-3-3-1-5-12-4-2-2v-7l-8-3-1-5 2-4-7-5 1-4 3-6-4-2 1-5 3-3 1-3-3-1 1-5 8-3v-3l-3-2v-2l6-4 7-2v-2l-3-3 7-5 10-3-1-5 7-3 10-3 7-3h3l-1-3 9-3 12-3zm3 3-20 3-4 3h2v2l-18 4-16 4-3 3 6 2-3 2-11 2-9 4 1 3 2 1v2l-10 3-5 4v2l4 3-9 4-2 5 3 2-1 3-4 2-1 5 3 5-2 3 1 5 5 3 1 3-2 1 1 5 10 5-1 4 3 4 16 4 4 7 3 1h44l9-3 4-5v-2l18-3 5-3v-2l-3-3h2v-2l13-2 6-4v-6l10-4 1-4h-2l3-6 4-4v-7l3-6v-8l1-7h-2v-3h-2l1-7-6-7-2-6-16-8-6-4-11-2z" fill="#1F2C44"/>
<path transform="translate(855,357)" d="m0 0h45l3 2-7 4-2 1-11 1-2 4 9 1-2 4-10 2-25 1-1 8-2 2h-20l-4-2v-2l2-2v-2l-4-1-18-1-9-2-1-4 6-2-4-3v-2l-7-1v-3l4-2z" fill="#244BD4"/>
<path transform="translate(600,250)" d="m0 0h18l13 1 15 5 5 4 2 3 16 5 9 5v3h-3l3 4-14-2-6-1v-2h-2v-2h14l-8-5-22-5-21-3-24-1-13 2v2l1 2-6 3-8 2-1 8-5 4v6 3l-2 1 1 9h2l-1 3h-2l1 5 6 4 2 4-5 2v4l9 3 9 4 2 2-8 1v2l9 4 12 2 6 3 1 3h-10l4 4 7 3 8 2 14 2 8 2h15l13 2h22l3-1v-3l-8-2 1-3h-7v-2l22 2-3 1 1 8-8 2h-12l-2 6-3 2h-19l-15-2-17-4-5-3-2-4-19-7-6-7v-2l-5-2-11-7 1-5-9-6-1-5-1-4-5-6v-17l2-11 4-8 4-5 4-2 1-3 8-5 12-3z" fill="#1331AB"/>
<path transform="translate(1030,592)" d="m0 0h9l6 7 3 13 2 6 5 1 2 2 3-1v2l2 1h-2l-1 3-10-1-9 1-5 5-7 2-2 2-9 2-8 6-2 1 1-4v-1l-7 9h-2l-2 2v-7l3-10 5-8-1-4-10-1-10 1 5-4 6-3-4 1-6 1 4-3 12-7 7-6 6-1v-2z" fill="#BDC6CB"/>
<path transform="translate(597,247)" d="m0 0h29l28 6 10 5 1 5 4 2 13 5 7 5-2 2h-5v2l4 2-8-1-3-2v-2l3-2-12-6-13-4-5-6-11-4-8-2-11-1h-18l-9 4-14 4-4 3h-2l-1 4-5 3-3 4-3 7-2 11v17l6 7v6l5 5 5 3-1 5 15 9 6 8 19 7 4 6 14 4 10 2 11 1h19l2-1 3-6 18-2 1-1-1-5 1-2 3-1h7l1-3h2v-2l-4-2v-4l7-1v-5l-2-5 1-2 3-1 1-5-7-3v-3l6-1-1-5-10-4-1-3 5-1-2-7 7 1 3 2-1 5-4 1v2l9 4v5l-6 2v2l8 3 2 2-3 1-2 5-3 2 4 3v5l-6 3h-2l4 6-4 4-8 1 2 5v3l-18 5-2 5-6 2h-21l-21-2-22-5-10-5-1-4 1-2-11-3-9-3-3-2v-7l-15-7-2-3 5-2-3-3-6-3v-2h-2l-2-4 3-2-1-4-4-4 1-6-2-6 3-10v-7l3-1v-5l4-6 6-2 1-5 5-3 10-4h4v-2z" fill="#1F2C44"/>
<path transform="translate(507,734)" d="m0 0 4 2 3 2 2 8v15l-1 29-8 36-9 36-8 27-3 7-3-1v-8l10-42 7-35 1-14 1-22v-15l1-16 1-7z" fill="#BDC6CB"/>
<path transform="translate(577,332)" d="m0 0h7v2l3 3 14 3 12 2h14l15 3 27 3v2h29v-2h-3v-2h-2l-2-4 1-1h16v1h-5l2 5 2 1v2l-3 3h-18l-11-2v2h7l1 3 6 2v3l-5 2h-20l-13-2h-15l-12-3-13-2-10-3-6-4v-2l9-1-1-2-5-2-15-3-7-4z" fill="#244DD3"/>
<path transform="translate(1088,637)" d="m0 0 6 2 9 8 10 8 18 18 7 8 9 11 9 9 7 8 8 10 11 13 7 8 8 10 9 11 7 9 11 13 15 20 7 8 7 9 10 13 48 64 10 14-1 4-3-5-2-4h-2l-7-10-3-4v-2l-4-2-8-11-4-5-4-6-3-3v-2l-3-1-5-8-4-5-3-5-2-2-4-5-1-4h-2l-8-10-6-8-9-11-3-2v-3h-2l-5-9-1-3-4-2-4-4-8-11v-2l-6-3-3-5-4-6-5-5-4-5-3-5-5-5-7-8-4-6-5-5-7-8-9-9-7-9-5-5-9-10-15-15-8-7-8-6-5-4z" fill="#FBFBFB"/>
<path transform="translate(822,1258)" d="m0 0 7 1 7 4v2l5 2 5 4 3 3v2l4 2 7 7-1 5-4-5-7-6-5-2v-2l-2 1 1 5 2 1 1 9-3 7-4 2h-8l-9-3-15-12-2-5 1-6 5-5h2v-2l7-3h-7l1-2z" fill="#FCFCFC"/>
<path transform="translate(867,198)" d="m0 0h13l2 1v2l5 1 6 7 3 6v11l-2 4-5 4-1 2-7 2-10-1-6-4-4-3v-2l-3-1-4-7v-6l4-8z" fill="#1F2C44"/>
<path transform="translate(873,270)" d="m0 0h18l13 3 9 6 9 4 2 1 3 8 5 5-1 7h2v3h2l-1 12-1 6-2 3v7l-6 7-1 3h2l-2 5-9 3v6l-6 4-4-1h2l2-4-10-2 1-2 20-5h2l1-4-5-1-2-4 2-2 10-1v-5l-3-1 1-5 4-2v-5h-2l-1-5 3-4-1-3-5-5 1-2h2l-2-6-4-1-4-4-1-4-13-4-11-1h-26l-13 2-19 2-11 3h-2v2h12v2l-15 4-9 2-7 3 1 1 8 1v2l-8 3h-6l3-2v-2l-3-2v-2l13-5 9-2v-2l-5-1 3-3 16-4 18-4v-2l-2-1 4-2z" fill="#1331AB"/>
<path transform="translate(467,713)" d="m0 0h22l10 1v1h-17l-10 1v2l-14 8-10 3-1 3-13 5-11 8-8 7-5 8-1 4 9-1-2 2-14 7 2 2-7 2-2-1 1-6 10-13 7-8 4-6 6-4 1-3-7 1-6 5-5 5h-2l2-4 8-8 14-9 10-3 3-2 11-4z" fill="#FBFBFB"/>
<path transform="translate(878,306)" d="m0 0h42l5 2-1 4-9 1-68 1h-52l1-2 5-1 1-3 14-1z" fill="#327AC4"/>
<path transform="translate(675,351)" d="m0 0 22 2-3 1 1 8-8 2h-12l-2 6-3 2h-19l-15-2-17-4-5-3-2-4-5-2v-2l17 2 12 3h15l13 2h22l3-1v-3l-8-2 1-3h-7z" fill="#1331AB"/>
<path transform="translate(571,307)" d="m0 0h12l64 7 32 4 12 2 2 2-6 2v1l-16-1-59-7-23-3-17-3-2-1z" fill="#5FB5D4"/>
<path transform="translate(570,294)" d="m0 0h10l104 12 6 2-2 1v3h-14l-41-5-48-6-15-3z" fill="#5FB5D4"/>
<path transform="translate(855,357)" d="m0 0h45l3 2-7 4-37 1h-65l-4-2 2-3 3-1z" fill="#327AC4"/>
<path transform="translate(862,294)" d="m0 0h49l9 2 1 3-3 1-17 1h-90l-1-2 9-3 8-1z" fill="#327AC4"/>
<path transform="translate(724,145)" d="m0 0h34l27 3 29 6 3 2-9-1-25-5-15-2-17-1h-17l-32 2-29 4-31 7-13 4-20 8-30 15h-3v-2l6-3h2v-2l6-3 14-8 16-7 24-8 10-2 2 1 1-2 2 1v-2l5-1 12-2 7 2 25-3z" fill="#D1D5D8"/>
<path transform="translate(858,332)" d="m0 0h61l1 2-2 1-17 2-29 1h-73l-1-3 5-2z" fill="#5FB5D4"/>
<path transform="translate(587,322)" d="m0 0h14l60 7 24 3 5 1v1l-9 1v2h-12l-40-5-22-3-16-2-4-2z" fill="#5FB5D4"/>
<path transform="translate(882,319)" d="m0 0h38l2 1v2l-2 1-24 2h-91l-2-2 3-2 48-1z" fill="#5FB5D4"/>
<path transform="translate(583,283)" d="m0 0 20 1 31 4 27 3 16 2 3 1-1 2h-12l14 2v1h-9l-83-10-12-3 2-2z" fill="#5FB5D4"/>
<path transform="translate(786,364)" d="m0 0 12 1 5 4-6 2v4l27 2 4 2 1 3-3 1 1 2 3 1h20l3-9 10-1h15l-4 2-2 5-3 3-8 2h-44l-4-2-3-6-6-2-10-2-3-5v-4l-5-2z" fill="#1331AB"/>
<path transform="translate(597,272)" d="m0 0h7v1l10 1 1 1h17l22 2 20 3 5 4 5 2v1h-9l-38-4-15-2-1-1-13-2-12-1-2-2z" fill="#357FC5"/>
<path transform="translate(813,1271)" d="m0 0 9 1 8 6 3 3 1 8-3 5h-9l-11-7-4-5 1-7z" fill="#BDC6CB"/>
<path transform="translate(886,345)" d="m0 0h14l-1 4-7 1-52 1h-31l-7-1 1-4z" fill="#5FB5D4"/>
<path transform="translate(876,307)" d="m0 0h39l3 2-15 3h-88l1-2 10-1z" fill="#5FB5D4"/>
<path transform="translate(608,349)" d="m0 0 24 2 37 4 13 3-4 2-8 2-26-3-15-2-2-1-11-1-8-4z" fill="#327AC4"/>
<path transform="translate(833,319)" d="m0 0h49v1l-28 1-48 1-2 1 1 1h91l26-2v-2l-2-1 5 1v4l-3 1-16 1-115 1-5-2 1-2h2v-2l6-1z" fill="#327AC4"/>
<path transform="translate(582,105)" d="m0 0h13l3 2v6l-6 9-4 5-8 7-9 6-15 6-12 1-3-2-1-5 3-8 5-7h2v-2h2v-2l10-8zm0 2-15 5-10 7-8 8-5 10 1 5 6 2 12-3 14-7 10-9 7-10 1-5-6-3z" fill="#FDFDFD"/>
<path transform="translate(827,370)" d="m0 0h42l10 1-3 3-2 1-51 1h-12l-4-1-2-4z" fill="#327AC4"/>
<path transform="translate(709,31)" d="m0 0 5 1 5 4 4 8 7 9 9 5 9 6 5 3 1 4v3l1 2h3v2h2l-2 4h-3v-2l-5 2-3-1 4-3-4-5-3-6-7-4-9-7-11-10-4-9-4-3-4-2z" fill="#FCFCFC"/>
<path transform="translate(615,338)" d="m0 0h12l36 4 17 3 1 2-6 2-15-1-18-2-17-3-12-2 2-1z" fill="#5FB5D4"/>
<path transform="translate(443,730)" d="m0 0 4 2-13 5-11 8-8 7-5 8-1 4 9-1-2 2-14 7 2 2-7 2-2-1 1-6 10-13 7-8 9-7 11-7z" fill="#BDC6CB"/>
<path transform="translate(432,601)" d="m0 0 2 1h15l69 2 1 2h-24l-40 1h-26v-2l2-1z" fill="#FDFDFD"/>
<path transform="translate(1065,303)" d="m0 0h1l2 10 1 23v50l-2 4-1-1 1-51h-2l-1 2-1-10v-19l1-1z" fill="#BBC4C9"/>
<path transform="translate(853,283)" d="m0 0h37l10 2-2 2-26 1h-39l4-3z" fill="#327AC4"/>
<path transform="translate(686,282)" d="m0 0 5 1 1 3 2 1-1 4-2 1 12 4 2 5 2 2-7 1 3 4-11-2-2-1v-2l5-1v-2l-3-1 1-3-11-2v-2l-8-2 4-2h11l1-2-3-1z" fill="#2349D1"/>
<path transform="translate(796,345)" d="m0 0h90v1l-83 1-1 3 26 1v1h-38l-6-2 1-4z" fill="#327AC4"/>
<path transform="translate(795,332)" d="m0 0h63v1l-55 1-4 2v2h48v1h-63l-2-1 2-5z" fill="#327AC4"/>
<path transform="translate(600,262)" d="m0 0h23l13 1 10 4 12 3v1h-10l-38-5-11-2z" fill="#327AC4"/>
<path transform="translate(503,389)" d="m0 0 4 1 9 10 9 8v2l5 2 11 8 13 8 1 3 5 2-3 1-12-7-15-10-10-8-13-13z" fill="#E4E7E9"/>
<path transform="translate(707,309)" d="m0 0 5 2v5l-6 1v3l7 2 1 4-2 3h-3l1 7-9-3-4-1-1-4 8-1v-2l3-1-9-4-3-3 1-1h13z" fill="#2045CA"/>
<path transform="translate(597,272)" d="m0 0h7v1l10 1 1 1h17l10 2-1 2h-2v2l-18-1-13-2-12-1-2-2z" fill="#5FB5D4"/>
<path transform="translate(584,333)" d="m0 0 42 4v1h-11l1 3 6 1v1h-9l-23-4-4-2v-2l-3-1z" fill="#327AC4"/>
<path transform="translate(685,332)" d="m0 0 14 1 6 3-1 2h-2v2l-3 1-27-3v-1h9v-2l4-2z" fill="#327AC4"/>
<path transform="translate(782,320)" d="m0 0 3 1h-2l-2 5 7 1 1 4-1 1-9 2v4l7 2-1 5-6 1v5l-3-1 1-5 1-2-3-5 1-5 5-3-1-3-2-1 2-5z" fill="#1331AB"/>
<path transform="translate(885,294)" d="m0 0h26l9 2 1 3-3 1-17 1h-5l-1-2 3-2-1-1-12-1z" fill="#327AC4"/>
<path transform="translate(900,345)" d="m0 0h17v2l-10 4h-55v-1l40-1 7-1z" fill="#327AC4"/>
<path transform="translate(878,331)" d="m0 0h42l4 1v3l-4 2-8 1h-40v-1l29-1 17-2 1-1-41-1z" fill="#327AC4"/>
<path transform="translate(677,293)" d="m0 0 10 1 9 2-3 3 2 1v2l-23-2v-1l5-1-10-1-2-2h14l1-1z" fill="#327AC4"/>
<path transform="translate(684,306)" d="m0 0 16 1 4 4-1 2 2 2h-11l-16-2v-1h10v-4z" fill="#3178C4"/>
<path transform="translate(883,364)" d="m0 0h16l-3 1v2h-2l3 3v2l-5 3-5 1h-9v-1l10-2 2-3-9-1z" fill="#1331AB"/>
<path transform="translate(676,344)" d="m0 0 17 1 2 1v2h3v2l-2 1h-17l-10-1v-1l8-2 3-1z" fill="#327AC4"/>
<path transform="translate(691,320)" d="m0 0h8l9 3-1 2h-3l1 3h-10l-12-2 3-3 5-2z" fill="#327AC4"/>
<path transform="translate(356,859)" d="m0 0 1 2-7 12-6 10h-4l1-11 2-2 1 3h2l2-4 5-8z" fill="#F8F9F9"/>
<path transform="translate(675,351)" d="m0 0 22 2-3 1 1 8-8 2-3-1 5-2v-3l-8-2 1-3h-7z" fill="#1331AB"/>
<path transform="translate(494,724)" d="m0 0h5l9 6 3 4-8-1-2 7h-1l-1-6-4-3z" fill="#BDC6CB"/>
<path transform="translate(686,281)" d="m0 0 9 1 5 2 2 7-4 2 1 2-6-1-3-3h3l1-4-3-1v-2l-5-2z" fill="#1F2C44"/>
<path transform="translate(763,514)" d="m0 0 2 2 2 4 5 5 8 5 13 3 1 2h-8l-13-4-6-5-4-8z" fill="#FDFDFD"/>
<path transform="translate(572,319)" d="m0 0 24 2v1h-9l1 3 3 2-10-1-8-3-2-1z" fill="#327AC4"/>
<path transform="translate(585,270)" d="m0 0 16 1-4 2-2 2 1 2-17-2-4-2 4-2z" fill="#327AC4"/>
<path transform="translate(686,282)" d="m0 0 5 1 1 3 2 1-1 4-2 1 2 2-11-1-8-3 4-2h11l1-2-3-1z" fill="#1331AB"/>
<path transform="translate(555,429)" d="m0 0 16 8 26 11-3 1-17-7-8-1-3-3-6-3-3-3-2-1z" fill="#C6CCCF"/>
<path transform="translate(753,1117)" d="m0 0h1v7l-2 13-3-2-2 1-2-6 3-7h3z" fill="#FDFDFD"/>
<path transform="translate(573,281)" d="m0 0 16 1v1l-10 2 10 3v1l-10-1-10-2v-3z" fill="#327AC4"/>
<path transform="translate(751,1147)" d="m0 0h1v7l-2 5-2 1v9l-2-1-2-6v-8l3-5 2 2z" fill="#FDFDFD"/>
<path transform="translate(692,341)" d="m0 0h16v1h-5l2 5 2 1v2l-3 3h-5l5-5-5-1-8-4z" fill="#1331AB"/>
<path transform="translate(693,344)" d="m0 0 6 2 5 2-2 4-3 1h-13l-8-1 1-2h19v-2h-3v-2h-2z" fill="#244BD4"/>
<path transform="translate(939,1317)" d="m0 0m-1 1m-1 1m-2 1h2v2h-2l-1 3-14 8-12 5-5 1 2-3 11-4 11-6z" fill="#FDFDFD"/>
<path transform="translate(707,309)" d="m0 0 5 2v5l-6 1v3l4 2-12-2-3-3 1-1h13z" fill="#1331AB"/>
<path transform="translate(676,280)" d="m0 0 10 1 2 4 2 1-1 3-6-1-4-3-3-2z" fill="#2248D0"/>
<path transform="translate(577,332)" d="m0 0h7v2l3 3 11 3v1h-7l-11-3-4-3z" fill="#244BD4"/>
<path transform="translate(874,1306)" d="m0 0 2 4 4 4 9-2-4 4-3 1h-9l-2-7h2z" fill="#BDC6CB"/>
<path transform="translate(378,930)" d="m0 0 3 1-4 18-1-2-3 1 1-7z" fill="#BDC6CB"/>
<path transform="translate(1061,995)" d="m0 0h1v17l-2 15-2 1 1-24 1-8z" fill="#FDFDFD"/>
<path transform="translate(816,1277)" d="m0 0 5 1 3 4-1 4-5-1-4-3v-4z" fill="#FDFDFD"/>
<path transform="translate(900,356)" d="m0 0 9 1 1 2-3 3h-2v2h-11l2-2 5-3z" fill="#2249D1"/>
<path transform="translate(792,307)" d="m0 0 4 1h-3l-1 3-3 2 8 3-2 1v2l-9 1 3-4-4-2 1-3z" fill="#1331AB"/>
<path transform="translate(701,296)" d="m0 0 3 1 1 4 2 2-7 1 3 4-11-2-2-1v-2l12-1z" fill="#1331AB"/>
<path transform="translate(781,352)" d="m0 0 7 1 2 4-4 2-1 3 1 2-4-1-1-5 2-2z" fill="#1331AB"/>
<path transform="translate(698,332)" d="m0 0 6 1 7 3-1 5h-10l2-1v-2l2-2-6-3z" fill="#2146CD"/>
<path transform="translate(401,747)" d="m0 0h3v2h-3l-1 3-5 4-2 3h-2l-1 3h-2l-2 5-3 1 2-5z" fill="#E7EAEC"/>
<path transform="translate(696,329)" d="m0 0h13l1 7-9-3-4-1z" fill="#1331AB"/>
<path transform="translate(541,422)" d="m0 0 6 2 8 5v2l5 2-3 1-12-7-4-3z" fill="#E7EAEB"/>
<path transform="translate(885,295)" d="m0 0h12l2 3-1 1h-10l-6-2z" fill="#5FB5D4"/>
<path transform="translate(591,176)" d="m0 0m5 0 2 1-15 8-4 2h-3v-2l6-3h2v-2l6-2z" fill="#DADDDF"/>
<path transform="translate(787,111)" d="m0 0 3 2 2-2 4 11-2 3-7-9z" fill="#BDC6CB"/>
<path transform="translate(606,607)" d="m0 0h28v3l-9-1h-17z" fill="#FAFAFB"/>
<path transform="translate(864,296)" d="m0 0h11l1 2-2 1h-14v-2z" fill="#5FB5D4"/>
<path transform="translate(640,366)" d="m0 0h11l4 2-4 2h-6l-5-3z" fill="#244BD4"/>
<path transform="translate(701,308)" d="m0 0h5l3 4v4h-6l-1-4 1-2z" fill="#2349D1"/>
<path transform="translate(481,945)" d="m0 0 2 2-5 17h-1v-11l2-1z" fill="#BEC7CB"/>
<path transform="translate(417,732)" d="m0 0h2l-1 2zm-1 1m-2 1 2 1-3 5-4 3-3 3h-2l2-4z" fill="#E6E9EB"/>
<path transform="translate(567,306)" d="m0 0h13v1l-9 1-1 2 6 1v1h-6l-4-2z" fill="#327AC4"/>
<path transform="translate(818,627)" d="m0 0 4 1-16 8-2-1 8-5z" fill="#FDFDFD"/>
<path transform="translate(775,785)" d="m0 0 4 5-1 10h-2l-1-8z" fill="#BDC6CB"/>
<path transform="translate(432,601)" d="m0 0 6 1-2 4-1 1h-6v-2l2-1z" fill="#F1F2F3"/>
<path transform="translate(777,494)" d="m0 0 4 2 3 7-1 5-2-4-3-7z" fill="#BDC6CB"/>
<path transform="translate(571,189)" d="m0 0h2l-2 4-7 4-3-1 8-6z" fill="#E2E5E7"/>
<path transform="translate(837,359)" d="m0 0h8l4 2-4 1h-8l-3-2z" fill="#5FB5D4"/>
<path transform="translate(790,497)" d="m0 0 2 1 2 8v6l-2-2-2-6z" fill="#BDC6CB"/>
<path transform="translate(568,293)" d="m0 0h7v1h-5v4l3 1-8-1 1-4z" fill="#327AC4"/>
<path transform="translate(749,1183)" d="m0 0 4 3v9l-3-1-1-3z" fill="#FDFDFD"/>
<path transform="translate(399,1252)" d="m0 0h2l-2 9-3-1 1-7z" fill="#DFE3E5"/>
<path transform="translate(1011,1180)" d="m0 0h1v7h-2l-3 3 1-7z" fill="#FDFDFD"/>
<path transform="translate(414,745)" d="m0 0 2 1-6 7-4 1 1-3z" fill="#FDFDFD"/>
<path transform="translate(775,138)" d="m0 0 4 1-2 2-4 1-13-1v-1l14-1z" fill="#BFC8CC"/>
</svg>
